<svg width="95" height="95" viewBox="0 0 95 95" fill="none" xmlns="http://www.w3.org/2000/svg">
<g id="Clamp">
<g id="Layer 23">
<path id="Vector" d="M54.9219 34.1406C56.1239 34.1405 57.2799 33.6781 58.1503 32.8491C59.0207 32.0201 59.539 30.8881 59.5977 29.6875L60.8594 11.875H48.9844L50.2461 29.6875C50.3048 30.8881 50.823 32.0201 51.6935 32.8491C52.5639 33.6781 53.7198 34.1405 54.9219 34.1406Z" fill="#77787C"/>
<path id="Vector_2" d="M56.6289 28.2031C56.5702 29.4037 56.052 30.5358 55.1815 31.3647C54.3111 32.1937 53.1552 32.6562 51.9531 32.6562C51.7966 32.6492 51.6405 32.6339 51.4855 32.6102C50.7417 31.812 50.3029 30.7771 50.2461 29.6875L48.9844 11.875H57.7852L56.6289 28.2031Z" fill="#999A9E"/>
<path id="Vector_3" d="M52.7769 27.1433C60.8718 28.4688 68.1715 32.7921 73.2244 39.2537C78.2774 45.7153 80.7137 53.8418 80.0487 62.0175C79.3838 70.1933 75.6664 77.8193 69.6357 83.3795C63.605 88.9396 55.7027 92.0266 47.4999 92.0266C39.2972 92.0266 31.3949 88.9396 25.3642 83.3795C19.3335 77.8193 15.6161 70.1933 14.9512 62.0175C14.2862 53.8418 16.7225 45.7153 21.7754 39.2537C26.8284 32.7921 34.1281 28.4688 42.223 27.1433" fill="#44ACE4"/>
<path id="Vector_4" d="M77.1875 54.9219C77.1879 49.3994 75.7799 43.9681 73.0965 39.1415C68.0592 32.745 60.8107 28.4649 52.7769 27.1433H42.223C37.0605 27.988 32.1765 30.0605 27.982 33.1864C23.7875 36.3124 20.4054 40.4002 18.1203 45.1059C15.8352 49.8115 14.714 54.9973 14.8511 60.2266C14.9881 65.456 16.3794 70.5759 18.9079 75.1554C23.1129 80.4774 28.8707 84.358 35.3818 86.2583C41.8929 88.1586 48.8341 87.9844 55.2417 85.7598C61.6492 83.5353 67.2051 79.3707 71.1379 73.8445C75.0706 68.3183 77.185 61.7046 77.1875 54.9219Z" fill="#7CCBF3"/>
<path id="Vector_5" d="M47.5 40.0781C46.298 40.078 45.142 39.6156 44.2716 38.7866C43.4011 37.9576 42.8829 36.8256 42.8242 35.625L41.5625 17.8125H53.4375L52.1758 35.625C52.1171 36.8256 51.5989 37.9576 50.7284 38.7866C49.858 39.6156 48.702 40.078 47.5 40.0781Z" fill="#C1C2C4"/>
<path id="Vector_6" d="M45.7929 34.1406C45.8516 35.3412 46.3699 36.4733 47.2403 37.3022C48.1107 38.1312 49.2667 38.5937 50.4687 38.5938C50.6253 38.5867 50.7814 38.5714 50.9363 38.5477C51.6801 37.7495 52.119 36.7146 52.1757 35.625L53.4375 17.8125H44.6366L45.7929 34.1406Z" fill="#DBDCDE"/>
<path id="Vector_7" d="M43.0469 17.8125V1.48438H51.9531V17.8125" fill="#22659F"/>
<path id="Vector_8" d="M59.375 1.48438H50.4688V11.875H59.375V1.48438Z" fill="#1F5881"/>
<path id="Vector_9" d="M47.5 86.0938V83.125C53.7966 83.1175 59.8332 80.6129 64.2855 76.1605C68.7379 71.7082 71.2425 65.6716 71.25 59.375H74.2188C74.2105 66.4587 71.3928 73.2499 66.3839 78.2589C61.3749 83.2678 54.5837 86.0855 47.5 86.0938Z" fill="white"/>
<path id="Vector_10" d="M74.2188 53.4375H71.25V56.4062H74.2188V53.4375Z" fill="white"/>
<path id="Vector_11" d="M51.9531 1.48438H46.0156V17.8125H51.9531V1.48438Z" fill="#2B78BF"/>
<path id="Vector_12" d="M13.3593 59.375C13.3606 65.5279 15.0247 71.5661 18.1756 76.851C21.3264 82.136 25.847 86.4711 31.2591 89.3981C36.6713 92.3251 42.7738 93.735 48.9214 93.4789C55.069 93.2227 61.033 91.3099 66.1829 87.9428C71.3328 84.5757 75.477 79.8795 78.1772 74.3508C80.8775 68.822 82.0334 62.6663 81.5228 56.5346C81.0122 50.4029 78.854 44.5232 75.2765 39.5172C71.699 34.5113 66.8351 30.5652 61.1993 28.0963L62.3437 11.9789C62.358 11.7754 62.3302 11.5712 62.262 11.3789C62.1938 11.1866 62.0868 11.0105 61.9475 10.8615C61.8082 10.7124 61.6397 10.5937 61.4525 10.5127C61.2652 10.4317 61.0633 10.3901 60.8593 10.3906V1.48438H57.8906V10.3906H53.4375V1.48438H50.4687V16.3281H44.5312V1.48438H41.5625V16.3281C41.3585 16.3276 41.1566 16.3692 40.9694 16.4502C40.7821 16.5312 40.6136 16.6499 40.4743 16.799C40.3351 16.948 40.228 17.1241 40.1598 17.3164C40.0916 17.5087 40.0638 17.7129 40.0781 17.9164L40.6481 25.9558C32.9319 27.5018 25.9922 31.6796 21.0149 37.7751C16.0375 43.8707 13.3315 51.5055 13.3593 59.375ZM53.4375 13.3594H59.2666L58.3003 26.9948C57.005 26.5701 55.6855 26.2231 54.3489 25.9558L54.9218 17.9164C54.9361 17.7129 54.9083 17.5087 54.8401 17.3164C54.772 17.1241 54.6649 16.948 54.5256 16.799C54.3863 16.6499 54.2178 16.5312 54.0306 16.4502C53.8434 16.3692 53.6415 16.3276 53.4375 16.3281V13.3594ZM51.8447 19.2969L50.6929 35.5567C50.6396 36.3694 50.2783 37.131 49.6826 37.6864C49.087 38.2417 48.3018 38.5488 47.4875 38.545C46.6731 38.5412 45.8909 38.2268 45.3004 37.666C44.7099 37.1051 44.3557 36.3401 44.31 35.527L43.1552 19.2969H51.8447ZM40.8604 28.9453L41.3398 35.7081C41.4172 37.2863 42.0977 38.7746 43.2407 39.8656C44.3837 40.9565 45.9021 41.5669 47.4822 41.5708C49.0623 41.5746 50.5835 40.9715 51.7318 39.886C52.8801 38.8006 53.5677 37.3156 53.6527 35.7378L54.1336 28.9453C61.6468 30.5824 68.2897 34.9387 72.7856 41.1769C77.2815 47.415 79.313 55.0948 78.4897 62.74C77.6664 70.3852 74.0464 77.4564 68.3255 82.5943C62.6045 87.7323 55.1864 90.5744 47.497 90.5744C39.8076 90.5744 32.3895 87.7323 26.6685 82.5943C20.9476 77.4564 17.3276 70.3852 16.5043 62.74C15.681 55.0948 17.7126 47.415 22.2084 41.1769C26.7043 34.9387 33.3472 30.5824 40.8604 28.9453Z" fill="black"/>
<path id="Vector_13" d="M74.2188 59.375H71.25C71.2425 65.6716 68.7379 71.7082 64.2855 76.1605C59.8332 80.6129 53.7966 83.1175 47.5 83.125V86.0938C54.5837 86.0855 61.3749 83.2678 66.3839 78.2589C71.3928 73.2499 74.2105 66.4587 74.2188 59.375Z" fill="black"/>
<path id="Vector_14" d="M74.2188 53.4375H71.25V56.4062H74.2188V53.4375Z" fill="black"/>
</g>
</g>
</svg>
