<svg width="175" height="247" viewBox="0 0 175 247" fill="none" xmlns="http://www.w3.org/2000/svg">
<g id="Css" clip-path="url(#clip0_5_119)">
<path id="Vector" d="M87.3933 246.137L16.1811 226.367L0.311401 48.3718H174.689L158.802 226.34L87.3933 246.137Z" fill="#264DE4"/>
<path id="Vector_2" d="M145.202 215.007L158.777 62.925H87.5V231.004L145.202 215.007Z" fill="#2965F1"/>
<path id="Vector_3" d="M36.692 128.941L38.6483 150.772H87.5V128.941H36.692ZM32.7603 84.7563L34.7446 106.587H87.5V84.7563H32.7603ZM87.5 185.637L87.4043 185.663L63.0923 179.098L61.5379 161.687H39.6237L42.6819 195.964L87.3995 208.378L87.5 208.35V185.637Z" fill="#EBEBEB"/>
<path id="Vector_4" d="M41.3503 0H67.7895V11.057H52.4072V22.1141H67.7909V33.1704H41.3503V0ZM73.078 0H99.5179V9.61475H84.1349V11.5376H99.5179V33.6516H73.0787V23.555H88.4617V21.6322H73.0773L73.078 0ZM104.806 0H131.246V9.61475H115.863V11.5376H131.246V33.6516H104.806V23.555H120.189V21.6322H104.807V0H104.806Z" fill="black"/>
<path id="Vector_5" d="M138.169 128.941L142.109 84.7563H87.4248V106.587H118.185L116.199 128.941H87.4248V150.772H114.306L111.772 179.084L87.4241 185.656V208.367L132.177 195.964L132.505 192.276L137.636 134.804L138.169 128.941Z" fill="white"/>
</g>
<defs>
<clipPath id="clip0_5_119">
<rect width="175" height="246.76" fill="white"/>
</clipPath>
</defs>
</svg>
