<svg width="175" height="247" viewBox="0 0 175 247" fill="none" xmlns="http://www.w3.org/2000/svg">
<g id="Html" clip-path="url(#clip0_5_89)">
<path id="Vector" d="M174.681 48.3711L158.795 226.337L87.3861 246.133L16.1739 226.364L0.304199 48.3711H174.681Z" fill="#E44D26"/>
<path id="Vector_2" d="M87.4927 231.001L145.195 215.004L158.77 62.9243H87.4927V231.001Z" fill="#F16529"/>
<path id="Vector_3" d="M56.6106 106.585H87.4928V84.7551H32.7531L33.2753 90.6117L38.641 150.77H87.4928V128.94H58.6058L56.6106 106.585ZM61.5306 161.685H39.6164L42.6746 195.962L87.3923 208.375L87.4928 208.348V185.635L87.3971 185.66L63.085 179.096L61.5306 161.685Z" fill="#EBEBEB"/>
<path id="Vector_4" d="M16.528 0H27.6218V10.9605H37.7702V0H48.8647V33.1912H37.7709V22.0769H27.6224V33.1912H16.5286L16.528 0ZM63.4528 11.007H53.6878V0H84.3198V11.007H74.5486V33.1912H63.4548V11.007H63.4528ZM89.1811 0H100.749L107.864 11.6625L114.973 0H126.545V33.1912H115.497V16.7398L107.864 28.5411H107.673L100.036 16.7398V33.1912H89.1811V0ZM132.066 0H143.163V22.2204H158.765V33.1912H132.066V0H132.066Z" fill="black"/>
<path id="Vector_5" d="M87.4176 150.77H114.299L111.764 179.082L87.4169 185.653V208.365L132.17 195.962L132.498 192.273L137.629 134.802L138.161 128.94H87.4176V150.77ZM87.4176 106.532V106.585H140.148L140.585 101.679L141.58 90.6117L142.102 84.7551H87.4176V106.532Z" fill="white"/>
</g>
<defs>
<clipPath id="clip0_5_89">
<rect width="175" height="246.757" fill="white"/>
</clipPath>
</defs>
</svg>
