<svg width="175" height="247" viewBox="0 0 175 247" fill="none" xmlns="http://www.w3.org/2000/svg">
<g id="javascript" clip-path="url(#clip0_5_113)">
<path id="Path 275" d="M175 48.355H0L16.4058 226.564L87.4911 246.76L158.576 226.564L175 48.355Z" fill="#E6A329"/>
<path id="Path 276" d="M87.4911 62.8743V231.658L145.086 215.314L159.098 62.8743H87.4911Z" fill="#F1BF22"/>
<path id="Path 277" d="M133.312 84.7368H44.7557L38.5876 151.453L38.7146 151.038H113.948L111.497 179.267L87.4933 186.184L63.1351 179.155L61.6761 162.07H39.5655L42.7197 196.209L87.4933 208.941L132.287 196.209L138.455 129.198H58.611L59.6357 106.872H115.032L115.861 119.664H138.159L133.312 84.7368Z" fill="white"/>
<path id="Path 278" d="M87.5111 84.7368H44.7557L38.5876 151.453L38.7146 151.038H87.5089V129.274H61.7251L62.7498 106.947H87.5111V84.7368ZM61.7251 162.081H39.5633L42.7175 196.203L87.4911 208.921V186.215L63.1329 179.169L61.7251 162.081Z" fill="#EBEBEB"/>
<path id="Path 279" d="M70.4749 22.07H54.8955V33.2735H81.626V0H70.4883L70.4749 22.07ZM120.098 0.178506H92.9397V11.826C96.5661 15.4586 98.4573 17.2057 103.799 22.4672H92.9397V33.0883H120.096V22.4851L109.247 11.8439H120.107L120.098 0.178506Z" fill="#231F20"/>
</g>
<defs>
<clipPath id="clip0_5_113">
<rect width="175" height="246.76" fill="white"/>
</clipPath>
</defs>
</svg>
