<svg width="580" height="580" viewBox="0 0 580 580" fill="none" xmlns="http://www.w3.org/2000/svg">
<path d="M291.811 36.25C242.611 36.2367 194.396 50.0382 152.655 76.0829C110.914 102.128 77.3243 139.369 55.7106 183.568C34.0969 227.766 25.3274 277.145 30.4007 326.083C35.474 375.02 54.1861 421.55 84.4066 460.375C73.0028 487.346 56.2963 511.751 35.2788 532.141C32.4654 534.861 30.6076 538.418 29.9832 542.28C29.3588 546.143 30.0012 550.104 31.8145 553.572C33.6278 557.039 36.5146 559.827 40.0433 561.518C43.5721 563.209 47.5533 563.712 51.3919 562.953C85.1135 556.338 122.741 543.569 144.953 517.061C179.024 540.003 217.999 554.639 258.749 559.796C299.499 564.952 340.891 560.486 379.603 546.754C418.315 533.022 453.269 510.407 481.661 480.725C510.054 451.042 531.093 415.118 543.092 375.834C555.091 336.55 557.714 295.001 550.753 254.52C543.791 214.039 527.438 175.753 503.005 142.735C478.573 109.716 446.741 82.8843 410.064 64.3917C373.387 45.8991 332.886 36.2607 291.811 36.25Z" fill="#FAB440"/>
<path d="M371.155 349.015L351.807 360.624C351.276 360.94 350.686 361.144 350.073 361.224C349.46 361.304 348.838 361.257 348.244 361.087C347.649 360.918 347.096 360.628 346.618 360.237C346.14 359.845 345.747 359.36 345.463 358.811L333.528 334.95C333.13 334.177 332.518 333.535 331.764 333.1C331.011 332.666 330.149 332.457 329.281 332.499C328.412 332.541 327.574 332.832 326.867 333.337C326.159 333.843 325.612 334.541 325.29 335.348L315.883 359.817C315.609 360.514 315.166 361.132 314.594 361.615C314.022 362.099 313.34 362.434 312.607 362.589C311.875 362.744 311.115 362.716 310.396 362.505C309.677 362.295 309.022 361.91 308.488 361.385L299.299 352.187C298.664 351.568 297.861 351.149 296.991 350.981C296.12 350.814 295.219 350.906 294.4 351.245C293.581 351.585 292.88 352.157 292.383 352.892C291.886 353.626 291.615 354.49 291.605 355.377V381.803L262.886 342.644C262.379 341.968 261.695 341.448 260.908 341.141C260.122 340.833 259.266 340.752 258.435 340.906C257.605 341.059 256.835 341.442 256.21 342.01C255.586 342.578 255.133 343.309 254.902 344.121L249.229 364.965C249.068 365.539 248.797 366.075 248.429 366.544C248.061 367.013 247.604 367.405 247.085 367.697C246.566 367.989 245.994 368.176 245.402 368.247C244.81 368.317 244.211 368.271 243.637 368.109L212.244 359.138C211.472 358.924 210.657 358.92 209.883 359.124C209.108 359.329 208.401 359.735 207.835 360.301C207.268 360.868 206.862 361.574 206.658 362.349C206.453 363.124 206.458 363.939 206.671 364.711L215.643 396.103C215.804 396.677 215.851 397.277 215.78 397.869C215.709 398.46 215.522 399.032 215.23 399.552C214.938 400.071 214.547 400.528 214.078 400.895C213.609 401.263 213.072 401.535 212.498 401.695L191.654 407.368C190.843 407.599 190.111 408.052 189.543 408.677C188.975 409.301 188.593 410.072 188.439 410.902C188.286 411.732 188.367 412.588 188.674 413.375C188.981 414.161 189.502 414.846 190.177 415.352L229.345 444.062H202.874C201.987 444.073 201.123 444.343 200.389 444.84C199.655 445.337 199.082 446.039 198.743 446.858C198.403 447.677 198.311 448.577 198.478 449.448C198.646 450.319 199.065 451.121 199.684 451.756L208.882 460.946C209.408 461.479 209.793 462.135 210.003 462.854C210.213 463.572 210.241 464.332 210.086 465.065C209.931 465.797 209.596 466.48 209.113 467.052C208.629 467.623 208.011 468.066 207.314 468.341L182.855 477.747C182.047 478.069 181.349 478.616 180.844 479.324C180.338 480.032 180.047 480.87 180.005 481.738C179.963 482.607 180.172 483.469 180.607 484.222C181.041 484.975 181.683 485.587 182.456 485.985L206.318 497.921C206.867 498.204 207.352 498.597 207.743 499.076C208.135 499.554 208.424 500.107 208.594 500.701C208.764 501.295 208.81 501.918 208.73 502.531C208.65 503.143 208.446 503.733 208.13 504.264L196.521 523.613C196.103 524.327 195.888 525.143 195.901 525.971C195.914 526.799 196.153 527.608 196.593 528.309C197.033 529.011 197.657 529.578 198.397 529.95C199.136 530.322 199.964 530.484 200.789 530.419L294.677 521.882L299.643 551.625C299.772 552.418 300.11 553.163 300.622 553.782C301.134 554.402 301.801 554.874 302.555 555.151C303.31 555.427 304.124 555.498 304.915 555.357C305.706 555.215 306.445 554.865 307.056 554.344C328.979 536.074 337.099 521.075 335.531 492.891C335.488 492.247 335.583 491.601 335.811 490.997C336.038 490.392 336.391 489.843 336.848 489.387C337.304 488.93 337.853 488.577 338.458 488.35C339.062 488.122 339.708 488.027 340.352 488.07C368.545 489.637 383.544 481.508 401.823 459.568C402.337 458.96 402.681 458.228 402.822 457.444C402.963 456.661 402.895 455.854 402.625 455.105C402.355 454.357 401.892 453.692 401.284 453.179C400.675 452.666 399.942 452.322 399.159 452.182L369.388 447.216L377.925 353.328C377.995 352.504 377.838 351.677 377.472 350.936C377.105 350.195 376.542 349.568 375.845 349.124C375.148 348.679 374.342 348.434 373.515 348.415C372.689 348.396 371.873 348.603 371.155 349.015Z" fill="#B3173D"/>
<path d="M190.189 95.1562C195.194 95.1562 199.251 91.0988 199.251 86.0938C199.251 81.0887 195.194 77.0312 190.189 77.0312C185.184 77.0312 181.126 81.0887 181.126 86.0938C181.126 91.0988 185.184 95.1562 190.189 95.1562Z" fill="#1E120B"/>
<path d="M289.876 299.062C294.881 299.062 298.939 295.005 298.939 290C298.939 284.995 294.881 280.938 289.876 280.938C284.871 280.938 280.814 284.995 280.814 290C280.814 295.005 284.871 299.062 289.876 299.062Z" fill="#1E120B"/>
<path d="M260.423 203.906V251.484C260.423 253.888 261.378 256.193 263.078 257.893C264.777 259.592 267.082 260.547 269.486 260.547C271.889 260.547 274.194 259.592 275.894 257.893C277.593 256.193 278.548 253.888 278.548 251.484V233.359H301.205V251.484C301.205 253.888 302.159 256.193 303.859 257.893C305.558 259.592 307.863 260.547 310.267 260.547C312.671 260.547 314.976 259.592 316.675 257.893C318.375 256.193 319.33 253.888 319.33 251.484V203.906C319.33 196.095 316.226 188.603 310.703 183.08C305.179 177.556 297.688 174.453 289.876 174.453C282.065 174.453 274.573 177.556 269.05 183.08C263.526 188.603 260.423 196.095 260.423 203.906ZM301.205 203.906V215.234H278.548V203.906C278.548 200.902 279.742 198.021 281.866 195.896C283.991 193.772 286.872 192.578 289.876 192.578C292.881 192.578 295.762 193.772 297.887 195.896C300.011 198.021 301.205 200.902 301.205 203.906ZM192.455 174.453C190.051 174.453 187.746 175.408 186.046 177.108C184.347 178.807 183.392 181.112 183.392 183.516V251.484C183.392 253.888 184.347 256.193 186.046 257.893C187.746 259.592 190.051 260.547 192.455 260.547C194.858 260.547 197.163 259.592 198.863 257.893C200.562 256.193 201.517 253.888 201.517 251.484V226.563H224.173V251.484C224.173 253.888 225.128 256.193 226.828 257.893C228.527 259.592 230.832 260.547 233.236 260.547C235.639 260.547 237.944 259.592 239.644 257.893C241.343 256.193 242.298 253.888 242.298 251.484V183.516C242.298 181.112 241.343 178.807 239.644 177.108C237.944 175.408 235.639 174.453 233.236 174.453C230.832 174.453 228.527 175.408 226.828 177.108C225.128 178.807 224.173 181.112 224.173 183.516V208.438H201.517V183.516C201.517 181.112 200.562 178.807 198.863 177.108C197.163 175.408 194.858 174.453 192.455 174.453ZM346.517 260.547C348.921 260.547 351.226 259.592 352.925 257.893C354.625 256.193 355.58 253.888 355.58 251.484V216.231L379.532 256.152C380.553 257.849 382.101 259.166 383.941 259.899C385.782 260.633 387.811 260.744 389.72 260.214C391.629 259.685 393.312 258.545 394.511 256.968C395.71 255.392 396.36 253.465 396.361 251.484V183.516C396.361 181.112 395.406 178.807 393.706 177.108C392.007 175.408 389.702 174.453 387.298 174.453C384.895 174.453 382.59 175.408 380.89 177.108C379.191 178.807 378.236 181.112 378.236 183.516V218.769L354.284 178.849C353.263 177.151 351.714 175.834 349.874 175.101C348.034 174.367 346.004 174.256 344.095 174.786C342.186 175.315 340.503 176.455 339.304 178.032C338.105 179.609 337.455 181.535 337.455 183.516V251.484C337.455 253.888 338.409 256.193 340.109 257.893C341.808 259.592 344.113 260.547 346.517 260.547ZM115.423 192.578H126.751V251.484C126.751 253.888 127.706 256.193 129.406 257.893C131.105 259.592 133.41 260.547 135.814 260.547C138.217 260.547 140.522 259.592 142.222 257.893C143.922 256.193 144.876 253.888 144.876 251.484V192.578H156.205C158.608 192.578 160.913 191.623 162.613 189.924C164.312 188.224 165.267 185.919 165.267 183.516C165.267 181.112 164.312 178.807 162.613 177.108C160.913 175.408 158.608 174.453 156.205 174.453H115.423C113.02 174.453 110.715 175.408 109.015 177.108C107.316 178.807 106.361 181.112 106.361 183.516C106.361 185.919 107.316 188.224 109.015 189.924C110.715 191.623 113.02 192.578 115.423 192.578ZM423.548 260.547C425.952 260.547 428.257 259.592 429.956 257.893C431.656 256.193 432.611 253.888 432.611 251.484V236.849L458.53 258.453C460.378 259.992 462.762 260.733 465.156 260.514C467.551 260.294 469.76 259.133 471.299 257.284C472.837 255.436 473.578 253.052 473.359 250.658C473.139 248.263 471.978 246.054 470.13 244.515L437.704 217.5L470.13 190.485C471.978 188.947 473.139 186.737 473.359 184.342C473.578 181.948 472.837 179.564 471.299 177.716C469.76 175.867 467.551 174.706 465.156 174.487C462.762 174.267 460.378 175.008 458.53 176.547L432.611 198.152V183.516C432.611 181.112 431.656 178.807 429.956 177.108C428.257 175.408 425.952 174.453 423.548 174.453C421.145 174.453 418.84 175.408 417.14 177.108C415.441 178.807 414.486 181.112 414.486 183.516V251.484C414.486 253.888 415.441 256.193 417.14 257.893C418.84 259.592 421.145 260.547 423.548 260.547ZM212.845 319.453C205.037 319.463 197.551 322.569 192.029 328.09C186.508 333.612 183.402 341.098 183.392 348.906V376.094C183.392 383.905 186.495 391.397 192.019 396.92C197.542 402.444 205.034 405.547 212.845 405.547C220.657 405.547 228.148 402.444 233.672 396.92C239.195 391.397 242.298 383.905 242.298 376.094V348.906C242.289 341.098 239.183 333.612 233.661 328.09C228.14 322.569 220.654 319.463 212.845 319.453ZM224.173 376.094C224.173 379.098 222.98 381.98 220.855 384.104C218.731 386.228 215.85 387.422 212.845 387.422C209.841 387.422 206.959 386.228 204.835 384.104C202.711 381.98 201.517 379.098 201.517 376.094V348.906C201.517 345.902 202.711 343.021 204.835 340.896C206.959 338.772 209.841 337.578 212.845 337.578C215.85 337.578 218.731 338.772 220.855 340.896C222.98 343.021 224.173 345.902 224.173 348.906V376.094ZM310.267 319.453C307.863 319.453 305.558 320.408 303.859 322.108C302.159 323.807 301.205 326.112 301.205 328.516V376.094C301.205 379.098 300.011 381.98 297.887 384.104C295.762 386.228 292.881 387.422 289.876 387.422C286.872 387.422 283.991 386.228 281.866 384.104C279.742 381.98 278.548 379.098 278.548 376.094V328.516C278.548 326.112 277.593 323.807 275.894 322.108C274.194 320.408 271.889 319.453 269.486 319.453C267.082 319.453 264.777 320.408 263.078 322.108C261.378 323.807 260.423 326.112 260.423 328.516V376.094C260.423 383.905 263.526 391.397 269.05 396.92C274.573 402.444 282.065 405.547 289.876 405.547C297.688 405.547 305.179 402.444 310.703 396.92C316.226 391.397 319.33 383.905 319.33 376.094V328.516C319.33 326.112 318.375 323.807 316.675 322.108C314.976 320.408 312.671 319.453 310.267 319.453ZM160.872 320.749C158.812 319.512 156.345 319.143 154.013 319.724C151.681 320.306 149.676 321.789 148.438 323.849L135.814 344.892L123.19 323.849C121.93 321.835 119.93 320.397 117.62 319.843C115.31 319.289 112.875 319.665 110.84 320.888C108.804 322.112 107.33 324.085 106.734 326.385C106.139 328.684 106.47 331.125 107.657 333.183L126.751 365.01V396.484C126.751 398.888 127.706 401.193 129.406 402.893C131.105 404.592 133.41 405.547 135.814 405.547C138.217 405.547 140.522 404.592 142.222 402.893C143.922 401.193 144.876 398.888 144.876 396.484V365.01L163.971 333.183C165.208 331.123 165.577 328.656 164.996 326.324C164.415 323.993 162.931 321.987 160.872 320.749ZM223.566 82.3963C224.469 82.3969 225.367 82.2625 226.23 81.9976C246.856 75.6854 268.307 72.4844 289.876 72.5001C292.28 72.5001 294.585 71.5453 296.285 69.8457C297.984 68.1462 298.939 65.8411 298.939 63.4376C298.939 61.0341 297.984 58.729 296.285 57.0294C294.585 55.3299 292.28 54.3751 289.876 54.3751C266.507 54.3563 243.265 57.8262 220.92 64.6701C218.846 65.3065 217.069 66.666 215.912 68.5013C214.755 70.3367 214.295 72.5261 214.615 74.6719C214.936 76.8177 216.015 78.7773 217.658 80.1948C219.3 81.6122 221.397 82.3934 223.566 82.3963ZM253.626 280.938H81.4389C79.0354 280.938 76.7303 281.892 75.0307 283.592C73.3312 285.291 72.3764 287.597 72.3764 290C72.3764 292.404 73.3312 294.709 75.0307 296.408C76.7303 298.108 79.0354 299.063 81.4389 299.063H253.626C256.03 299.063 258.335 298.108 260.035 296.408C261.734 294.709 262.689 292.404 262.689 290C262.689 287.597 261.734 285.291 260.035 283.592C258.335 281.892 256.03 280.938 253.626 280.938ZM498.314 299.063C500.717 299.063 503.023 298.108 504.722 296.408C506.422 294.709 507.376 292.404 507.376 290C507.376 287.597 506.422 285.291 504.722 283.592C503.023 281.892 500.717 280.938 498.314 280.938H326.126C323.723 280.938 321.418 281.892 319.718 283.592C318.019 285.291 317.064 287.597 317.064 290C317.064 292.404 318.019 294.709 319.718 296.408C321.418 298.108 323.723 299.063 326.126 299.063H498.314Z" fill="#1E120B"/>
<path d="M553.015 443.156L531.546 439.586L534.346 408.837C552.452 371.842 561.828 331.187 561.751 290C561.751 217.894 533.107 148.742 482.121 97.7553C431.135 46.7689 361.982 18.125 289.876 18.125C217.771 18.125 148.618 46.7689 97.6317 97.7553C46.6453 148.742 18.0014 217.894 18.0014 290C17.8144 348.686 36.8239 405.823 72.1317 452.699C61.183 476.588 45.9025 498.241 27.0639 516.562C22.7766 520.585 19.9413 525.914 19.0003 531.717C18.0593 537.521 19.0655 543.472 21.862 548.644C24.5234 553.894 28.8385 558.123 34.1418 560.678C39.445 563.233 45.4415 563.972 51.2064 562.781C93.0298 554.426 124.386 540.125 144.55 519.789C183.695 544.548 228.517 558.894 274.764 561.465C321.01 564.036 367.146 554.747 408.795 534.479L439.544 531.679L443.114 553.13C443.541 555.476 444.572 557.67 446.106 559.496C447.64 561.322 449.625 562.715 451.863 563.539C454.101 564.363 456.515 564.588 458.866 564.193C461.218 563.798 463.426 562.796 465.272 561.286C484.013 545.635 493.293 531.543 496.139 512.928C504.653 524.308 508.728 538.4 507.603 552.568C507.222 554.886 507.756 557.262 509.093 559.194C510.429 561.126 512.464 562.464 514.768 562.925C517.072 563.386 519.465 562.934 521.442 561.664C523.419 560.395 524.826 558.407 525.365 556.12C529.824 533.827 517.445 511.161 507.24 497.015C528.583 495.329 544.034 485.94 561.199 465.35C562.723 463.505 563.737 461.291 564.139 458.931C564.541 456.571 564.317 454.147 563.488 451.9C562.66 449.654 561.257 447.664 559.419 446.13C557.581 444.596 555.373 443.57 553.015 443.156ZM345.865 537.524C312.112 545.136 277.16 545.775 243.151 539.403C209.142 533.031 176.792 519.782 148.084 500.467C146.228 499.213 143.972 498.691 141.752 499.002C139.533 499.314 137.508 500.436 136.068 502.153C119.121 522.399 89.432 537.035 47.7082 544.983C45.7874 545.367 43.7935 545.12 42.0254 544.276C40.2572 543.433 38.81 542.039 37.9006 540.304C36.9912 538.569 36.6685 536.585 36.9809 534.651C37.2933 532.717 38.224 530.937 39.6336 529.576C61.5345 508.197 78.9726 482.682 90.9364 454.512C91.4908 453.057 91.6612 451.484 91.431 449.944C91.2009 448.404 90.5779 446.95 89.6223 445.721C54.8059 401.296 35.9616 346.442 36.1264 290C36.1393 254.308 43.6818 219.02 58.2612 186.441C72.8406 153.863 94.1289 124.726 120.735 100.935C147.342 77.1438 178.668 59.2333 212.668 48.3733C246.668 37.5133 282.576 33.9482 318.048 37.9108C353.519 41.8733 387.756 53.2745 418.521 71.3695C449.286 89.4645 475.888 113.846 496.589 142.922C517.29 171.998 531.624 205.114 538.654 240.107C545.685 275.1 545.255 311.182 537.391 345.997C536.495 344.456 535.3 343.109 533.878 342.034C532.456 340.958 530.834 340.177 529.107 339.734C527.38 339.291 525.582 339.196 523.818 339.455C522.054 339.713 520.359 340.32 518.831 341.239L503.697 350.302L493.973 330.845C492.768 328.525 490.923 326.6 488.657 325.297C486.391 323.995 483.798 323.369 481.188 323.495C478.577 323.621 476.057 324.493 473.927 326.008C471.796 327.522 470.145 329.616 469.169 332.041L462.272 349.958L458.04 345.716C456.198 343.922 453.886 342.685 451.372 342.147C448.857 341.609 446.242 341.791 443.826 342.674C441.411 343.556 439.294 345.103 437.719 347.135C436.143 349.168 435.174 351.603 434.922 354.163L422.524 337.261C420.997 335.233 418.935 333.671 416.569 332.751C414.203 331.831 411.627 331.589 409.131 332.052C406.636 332.516 404.318 333.666 402.44 335.373C400.562 337.081 399.197 339.279 398.5 341.72L394.032 358.105L367.053 350.393C364.729 349.764 362.282 349.759 359.956 350.38C357.631 351.001 355.511 352.225 353.81 353.928C352.11 355.632 350.889 357.754 350.272 360.08C349.655 362.406 349.663 364.854 350.296 367.176L357.999 394.128L341.614 398.596C339.172 399.295 336.974 400.662 335.266 402.542C333.558 404.423 332.408 406.742 331.946 409.24C331.484 411.738 331.727 414.315 332.649 416.682C333.571 419.049 335.135 421.112 337.164 422.639L354.066 435.027C351.506 435.278 349.069 436.246 347.035 437.821C345.002 439.396 343.454 441.513 342.571 443.928C341.687 446.344 341.504 448.96 342.042 451.475C342.579 453.99 343.817 456.303 345.611 458.146L349.843 462.378L331.926 469.265C329.502 470.243 327.409 471.896 325.895 474.027C324.381 476.158 323.509 478.678 323.384 481.289C323.258 483.9 323.883 486.492 325.185 488.759C326.487 491.026 328.411 492.872 330.73 494.078L350.196 503.802L341.134 518.937C340.213 520.465 339.604 522.161 339.343 523.926C339.082 525.691 339.175 527.49 339.615 529.219C340.055 530.948 340.834 532.573 341.907 533.998C342.98 535.424 344.325 536.622 345.865 537.524ZM493.221 478.989C492.722 478.971 492.222 478.989 491.725 479.044L486.197 473.516L492.305 406.326C492.414 405.141 492.288 403.946 491.934 402.809C491.58 401.673 491.006 400.617 490.245 399.702C489.483 398.787 488.549 398.032 487.495 397.478C486.442 396.924 485.289 396.584 484.104 396.475C482.919 396.367 481.723 396.493 480.587 396.847C479.45 397.2 478.395 397.774 477.48 398.536C476.565 399.297 475.809 400.232 475.256 401.285C474.702 402.339 474.361 403.492 474.253 404.677L469.513 456.832L451.189 438.543L454.615 409.489C454.679 407.227 453.894 405.024 452.416 403.311C450.937 401.598 448.872 400.5 446.625 400.234C444.378 399.967 442.113 400.55 440.274 401.868C438.435 403.187 437.157 405.146 436.689 407.359L434.876 422.213L408.459 395.796C406.75 394.145 404.461 393.231 402.085 393.252C399.708 393.273 397.435 394.226 395.755 395.906C394.075 397.586 393.122 399.859 393.101 402.235C393.081 404.612 393.994 406.901 395.645 408.61L421.573 434.538L406.882 436.822C404.506 437.192 402.375 438.49 400.957 440.432C399.538 442.374 398.95 444.8 399.32 447.175C399.69 449.551 400.989 451.683 402.93 453.101C404.872 454.519 407.298 455.108 409.674 454.738C416.615 453.633 437.441 450.406 437.441 450.406L455.475 468.441L405.976 472.972C403.582 473.189 401.373 474.349 399.834 476.196C398.295 478.042 397.552 480.424 397.77 482.818C397.987 485.212 399.147 487.422 400.994 488.961C402.84 490.5 405.222 491.242 407.616 491.024C423.748 489.529 472.159 485.152 472.159 485.152L478.911 491.903C478.86 492.391 478.836 492.881 478.839 493.372C480.105 502.466 478.998 511.733 475.625 520.273C472.252 528.813 466.729 536.335 459.59 542.11C459.59 542.11 456.871 525.797 455.965 520.423C455.59 518.165 454.374 516.132 452.562 514.733C450.75 513.335 448.475 512.674 446.195 512.883C424.962 514.85 361.253 520.604 361.253 520.604C361.253 520.604 366.473 511.85 368.249 508.95C369.185 507.34 369.784 505.557 370.009 503.709C370.235 501.861 370.082 499.986 369.561 498.198C369.04 496.411 368.161 494.748 366.977 493.311C365.793 491.873 364.33 490.692 362.675 489.837C359.005 488.025 348.049 482.524 348.049 482.524C348.049 482.524 359.141 478.192 362.866 476.823C364.949 475.982 366.795 474.642 368.239 472.921C369.684 471.2 370.683 469.151 371.151 466.953C371.618 464.755 371.538 462.476 370.918 460.316C370.298 458.156 369.158 456.182 367.596 454.566C367.234 454.222 366.174 453.152 366.174 453.152C366.174 453.152 377.783 453.089 381.652 453.152C383.543 453.11 385.374 452.483 386.893 451.357C388.411 450.23 389.543 448.66 390.132 446.863C390.721 445.066 390.737 443.131 390.179 441.324C389.621 439.518 388.517 437.928 387.017 436.776C379.033 431.121 355.471 413.649 355.471 413.649C355.471 413.649 364.234 411.211 367.17 410.45C370.648 409.462 373.595 407.143 375.373 403.996C377.152 400.848 377.617 397.127 376.668 393.639C374.919 387.775 369.944 370.122 369.944 370.122C369.944 370.122 387.597 375.088 393.452 376.837C396.94 377.789 400.663 377.328 403.813 375.554C406.964 373.779 409.287 370.834 410.281 367.357C411.042 364.421 413.471 355.64 413.471 355.64L436.598 387.195C437.746 388.712 439.339 389.833 441.155 390.4C442.971 390.967 444.919 390.953 446.726 390.359C448.533 389.765 450.11 388.621 451.235 387.087C452.36 385.553 452.978 383.705 453.001 381.803V366.333L454.424 367.756C456.04 369.316 458.014 370.455 460.173 371.073C462.332 371.692 464.609 371.771 466.806 371.304C469.002 370.837 471.051 369.838 472.771 368.394C474.491 366.951 475.831 365.108 476.673 363.026C478.041 359.301 482.373 348.208 482.373 348.208C482.373 348.208 487.901 359.156 489.686 362.826C490.543 364.479 491.727 365.941 493.166 367.123C494.604 368.305 496.268 369.183 498.056 369.703C499.844 370.224 501.718 370.376 503.567 370.15C505.415 369.924 507.198 369.326 508.808 368.391C511.699 366.578 520.454 361.403 520.454 361.403L512.732 446.355C512.525 448.633 513.187 450.906 514.586 452.716C515.984 454.526 518.016 455.741 520.272 456.116L541.968 459.741C536.184 466.871 528.659 472.389 520.12 475.761C511.58 479.133 502.316 480.245 493.221 478.989Z" fill="#1E120B"/>
</svg>
