<svg width="106" height="106" viewBox="0 0 106 106" fill="none" xmlns="http://www.w3.org/2000/svg">
<g id="Vanity Mirror">
<g id="Group">
<path id="Vector" d="M64.9154 88.4303L64.7541 91.6846C64.7486 93.6185 63.4786 95.549 60.9394 97.0247C55.8235 99.9977 47.4943 99.9977 42.345 97.0247C39.7616 95.5332 38.4719 93.574 38.4775 91.6166L38.6387 88.3623C38.6332 90.3198 39.9228 92.279 42.5062 93.7705C47.6555 96.7434 55.9848 96.7434 61.1006 93.7704C63.6399 92.2947 64.9099 90.3642 64.9154 88.4303Z" fill="#262E3F"/>
<path id="Vector_2" d="M61.0311 83.005C66.1804 85.9779 66.2165 90.7974 61.1007 93.7704C55.9848 96.7434 47.6555 96.7434 42.5063 93.7705C37.3659 90.8027 37.3476 85.9832 42.4634 83.0102C47.5793 80.0372 55.8907 80.0372 61.0311 83.005Z" fill="#38425D"/>
</g>
<g id="Group_2">
<path id="Vector_3" d="M55.6115 71.7682L55.5638 88.6119C55.5622 89.1847 55.186 89.7564 54.434 90.1935C52.9188 91.074 50.4519 91.074 48.9269 90.1935C48.1617 89.7518 47.7798 89.1715 47.7814 88.5918L47.8292 71.748C47.8275 72.3278 48.2095 72.908 48.9746 73.3498C50.4997 74.2303 52.9666 74.2303 54.4817 73.3498C55.2338 72.9127 55.6099 72.341 55.6115 71.7682Z" fill="#EFC348"/>
<path id="Vector_4" d="M54.4611 70.1614C55.9862 71.0419 55.9969 72.4692 54.4817 73.3498C52.9666 74.2303 50.4997 74.2303 48.9746 73.3498C47.4522 72.4708 47.4468 71.0434 48.9619 70.1629C50.4771 69.2824 52.9387 69.2824 54.4611 70.1614Z" fill="#FFD651"/>
</g>
<g id="Group_3">
<path id="Vector_5" d="M77.1391 24.5475L71.8564 21.4774L73.9244 20.2825L79.207 23.3526L77.1391 24.5475Z" fill="#CEA03A"/>
<path id="Vector_6" d="M77.1743 37.0914C77.2118 50.725 67.5925 67.3859 55.7287 74.2402C49.7572 77.684 44.3438 78.0005 40.4294 75.7227L35.1451 72.6536C39.0594 74.9273 44.4771 74.615 50.4443 71.167C62.3123 64.317 71.9316 47.6519 71.8899 34.0225L71.8566 21.4757L77.141 24.5489L77.1743 37.0914Z" fill="#EFC348"/>
<path id="Vector_7" d="M68.8668 11.0778C65.4646 9.10398 60.7549 9.37883 55.5538 12.3812C45.2225 18.3485 36.8691 32.8107 36.9024 44.6828L36.9482 60.3152C36.9649 66.2159 39.047 70.3634 42.4075 72.3164L37.1231 69.2474C33.7668 67.2944 31.6805 63.1469 31.6639 57.2462L31.6222 41.6139C31.5889 29.7417 39.9381 15.2795 50.2695 9.31219C55.4706 6.30982 60.1844 6.0308 63.5866 8.00879L68.8668 11.0778Z" fill="#EFC348"/>
<path id="Vector_8" d="M75.6325 25.2255C75.3236 25.0477 75.0427 25.029 74.8399 25.1475L73.4567 25.9514V29.5708L76.4126 27.853C76.6123 27.7375 76.734 27.491 76.7372 27.1416C76.7372 26.4363 76.2441 25.5782 75.6325 25.2255ZM35.0368 48.8735C34.7279 48.6957 34.4471 48.677 34.2442 48.7955L32.861 49.5994V53.2188L35.8169 51.501C36.0167 51.3855 36.1384 51.139 36.1415 50.7895C36.1415 50.0843 35.6485 49.2262 35.0368 48.8735Z" fill="#38425D"/>
<path id="Vector_9" d="M55.5525 12.3833C65.8869 6.4168 74.2917 11.2065 74.3254 23.0784L74.3697 38.711C74.4034 50.586 66.0531 65.0461 55.7188 71.0127C45.3871 76.9777 36.9822 72.1911 36.9486 60.3161L36.9043 44.6835C36.8706 32.8116 45.2209 18.3483 55.5525 12.3833Z" fill="#FFD651"/>
<path id="Vector_10" d="M71.865 38.7116C71.8843 46.2088 68.2996 54.8429 62.9996 61.3571C60.4749 64.46 57.5647 67.0619 54.4618 68.8542C52.3224 70.0684 50.2218 70.8392 48.333 71.032C47.9861 71.0705 47.6585 71.0898 47.3309 71.0898C46.3865 71.0898 45.5192 70.9357 44.729 70.6466C41.9345 69.6443 40.142 66.9077 39.6025 62.8796C39.5061 62.0702 39.4483 61.2222 39.4483 60.3164L39.4098 44.667C39.3905 37.7866 42.397 29.9619 47.0031 23.6789C49.3545 20.4604 52.1297 17.6659 55.117 15.6037C55.6567 15.2182 56.2348 14.8713 56.7937 14.5437C57.6224 14.0619 58.432 13.6764 59.2221 13.3488C60.8988 12.6549 62.4985 12.308 63.9439 12.308C67.5093 12.308 70.0341 14.4281 71.1712 18.167C71.5952 19.5738 71.8264 21.2313 71.8264 23.0815L71.865 38.7116Z" fill="#638DFF"/>
</g>
<path id="Vector_11" d="M79.2075 23.3531L79.2431 35.8972C79.2854 50.8394 68.741 69.1062 55.7346 76.6154C42.7309 84.1231 32.1175 78.0718 32.0752 63.1295L32.0396 50.5855L34.1081 49.3913L34.1436 61.9353C34.1823 75.567 43.8648 81.0878 55.7279 74.2386C67.5936 67.3879 77.2133 50.723 77.1746 37.0914L77.139 24.5474L79.2075 23.3531Z" fill="#DDB040"/>
<path id="Vector_12" d="M32.039 50.585L26.7563 47.5149L28.8262 46.3219L34.1089 49.392L32.039 50.585Z" fill="#FFD651"/>
<path id="Vector_13" d="M38.9637 78.2464L33.6793 75.1732C29.4443 72.7122 26.8126 67.4819 26.7918 60.0614L26.7584 47.5146L32.0387 50.5878L32.0761 63.1304C32.0969 70.5552 34.7287 75.7812 38.9637 78.2464Z" fill="#EFC348"/>
<g id="Group_4" opacity="0.25">
<path id="Vector_14" d="M55.117 15.6037L44.729 70.6466C41.9345 69.6443 40.1421 66.9077 39.6025 62.8796L47.0032 23.6789C49.3545 20.4604 52.1298 17.6659 55.117 15.6037ZM71.1712 18.167L62.9996 61.3571C60.4749 64.46 57.5647 67.0619 54.4618 68.8542C52.3224 70.0684 50.2218 70.8392 48.333 71.032L59.2221 13.3488C60.8988 12.6549 62.4985 12.308 63.944 12.308C67.5094 12.308 70.0341 14.4281 71.1712 18.167Z" fill="white"/>
</g>
<path id="Vector_15" d="M53.6808 40.194V40.2004C50.467 40.2004 47.8629 42.8045 47.8629 46.0183H47.8565C47.8565 42.8045 45.2525 40.2004 42.0386 40.2004V40.194C45.2525 40.194 47.8565 37.5899 47.8565 34.3761H47.8629C47.8629 37.5899 50.467 40.194 53.6808 40.194Z" fill="white"/>
</g>
</svg>
